<svg
xmlns:dc="http://purl.org/dc/elements/1.1/"
xmlns:cc="http://creativecommons.org/ns#"
xmlns:rdf="http://www.w3.org/1999/02/22-rdf-syntax-ns#"
xmlns:svg="http://www.w3.org/2000/svg"
xmlns="http://www.w3.org/2000/svg"
id="svg5264"
version="1.1"
viewBox="0 0 15.304492 19.598288"
height="19.598288mm"
width="15.304492mm">
<defs
id="defs5258" />
<metadata
id="metadata5261">
<rdf:RDF>
<cc:Work
rdf:about="">
<dc:format>image/svg+xml</dc:format>
<dc:type
rdf:resource="http://purl.org/dc/dcmitype/StillImage" />
<dc:title></dc:title>
</cc:Work>
</rdf:RDF>
</metadata>
<g
transform="translate(-8.9787062,-101.23657)"
id="layer1">
<g
transform="matrix(0.35277777,0,0,0.35277777,-10.809486,101.23658)"
id="g1196">
<path
id="path1198"
transform="matrix(0.75000002,0,0,0.75000002,264.40502,-22.552767)"
d="m -264.19531,30.070312 c -2.61886,0 -4.74805,2.131133 -4.74805,4.75 v 4.056641 h -5.41602 c -1.86887,0 -3.39062,1.519933 -3.39062,3.388672 v 15.050781 h 3.42188 V 42.296875 h 27.23242 v 11.091797 c 0,2.134358 1.73478,3.86914 3.86914,3.86914 h 11.09179 v 0.05859 h 3.41993 v -1.767578 c 0,-0.01389 -8.9e-4,-0.0259 -0.002,-0.03906 -0.0101,-0.431127 -0.18077,-0.852512 -0.49804,-1.169922 l -14.96289,-14.962891 c 0,0 -0.002,-0.002 -0.002,-0.002 -0.3093,-0.308298 -0.73598,-0.498047 -1.20703,-0.498047 h -20.13672 v -4.056641 c 0,-0.732623 0.59536,-1.330078 1.32813,-1.330078 h 39.53906 c 0.73277,0 1.32813,0.59731 1.32813,1.330078 v 22.496094 h 3.42187 V 34.820312 c 2e-5,-2.618867 -2.13129,-4.75 -4.75,-4.75 z m 20.51953,14.644532 9.12305,9.123047 h -8.67383 c -0.24826,0 -0.44922,-0.20096 -0.44922,-0.449219 z M -277.75,83.712891 v 17.041019 c 0,1.86888 1.52189,3.38867 3.39062,3.38867 h 42.25586 c 1.86889,0 3.38868,-1.51994 3.38868,-3.38867 v -5.416019 h 4.05859 c 2.61887,0 4.75,-2.13113 4.75,-4.75 v -6.875 h -3.42187 v 6.875 c 1.5e-4,0.732757 -0.59524,1.328125 -1.32813,1.328125 h -4.05859 v -8.203125 h -3.41993 v 17.009769 h -42.19335 V 83.712891 Z"
style="fill:#bdbdbd;fill-opacity:1;fill-rule:nonzero;stroke:none;stroke-width:1.33333325" />
</g>
</g>
</svg>


